<svg viewBox="0 0 1600 1000" xmlns="http://www.w3.org/2000/svg">
  <!-- MICRO DEPENDENCY GRAPH - ALL 41 PROJECTS -->

  <!-- Title -->
  <text x="800" y="30" font-size="28" font-weight="bold" text-anchor="middle" fill="#1a1a1a">
    Chrysa Ecosystem — 41 Projects Dependency Graph
  </text>

  <!-- Legend -->
  <g font-size="12">
    <rect x="50" y="50" width="15" height="15" fill="#6b8cdb" rx="2"/>
    <text x="75" y="62" fill="#333">Production (9)</text>

    <rect x="280" y="50" width="15" height="15" fill="#8ba3e8" rx="2"/>
    <text x="300" y="62" fill="#333">MVP (5)</text>

    <rect x="450" y="50" width="15" height="15" fill="#a5c1f5" rx="2"/>
    <text x="470" y="62" fill="#333">Alpha (4)</text>

    <rect x="620" y="50" width="15" height="15" fill="#d4a5ff" rx="2"/>
    <text x="640" y="62" fill="#333">Concept (2)</text>

    <rect x="820" y="50" width="15" height="15" fill="#cccccc" rx="2"/>
    <text x="840" y="62" fill="#333">Archived (~20)</text>
  </g>

  <!-- CENTRAL HUB: shared-standards (all depend on this) -->
  <circle cx="800" cy="200" r="40" fill="#f59e0b" stroke="#b45309" stroke-width="2"/>
  <text x="800" y="200" font-size="11" font-weight="bold" text-anchor="middle" fill="white" dy="-5">shared</text>
  <text x="800" y="200" font-size="11" font-weight="bold" text-anchor="middle" fill="white" dy="8">standards</text>

  <!-- TIER 1: FOUNDATION (around center) -->
  <g>
    <circle cx="600" cy="280" r="35" fill="#f59e0b" stroke="#b45309" stroke-width="2"/>
    <text x="600" y="285" font-size="10" font-weight="bold" text-anchor="middle" fill="white">agent</text>
    <text x="600" y="295" font-size="10" font-weight="bold" text-anchor="middle" fill="white">config</text>
    <line x="800" y="200" x1="600" y1="280" stroke="#f59e0b" stroke-width="2" stroke-dasharray="5,5"/>

    <circle cx="1000" cy="280" r="35" fill="#f59e0b" stroke="#b45309" stroke-width="2"/>
    <text x="1000" y="285" font-size="10" font-weight="bold" text-anchor="middle" fill="white">github</text>
    <text x="1000" y="295" font-size="10" font-weight="bold" text-anchor="middle" fill="white">actions</text>
    <line x="800" y="200" x1="1000" y1="280" stroke="#f59e0b" stroke-width="2" stroke-dasharray="5,5"/>
  </g>

  <!-- TIER 2: SHARED LIBRARIES (chrysa-lib packages) -->
  <g>
    <circle cx="350" cy="400" r="30" fill="#22c55e" stroke="#15803d" stroke-width="2"/>
    <text x="350" y="405" font-size="9" font-weight="bold" text-anchor="middle" fill="white">auth</text>
    <line x="800" y="200" x1="350" y1="400" stroke="#22c55e" stroke-width="2"/>

    <circle cx="480" cy="380" r="30" fill="#22c55e" stroke="#15803d" stroke-width="2"/>
    <text x="480" y="385" font-size="9" font-weight="bold" text-anchor="middle" fill="white">api</text>
    <line x="800" y="200" x1="480" y1="380" stroke="#22c55e" stroke-width="2"/>

    <circle cx="600" cy="370" r="30" fill="#22c55e" stroke="#15803d" stroke-width="2"/>
    <text x="600" y="375" font-size="9" font-weight="bold" text-anchor="middle" fill="white">utils</text>
    <line x="800" y="200" x1="600" y1="370" stroke="#22c55e" stroke-width="2"/>

    <circle cx="720" cy="380" r="30" fill="#22c55e" stroke="#15803d" stroke-width="2"/>
    <text x="720" y="385" font-size="9" font-weight="bold" text-anchor="middle" fill="white">models</text>
    <line x="800" y="200" x1="720" y1="380" stroke="#22c55e" stroke-width="2"/>

    <circle cx="850" cy="400" r="30" fill="#22c55e" stroke="#15803d" stroke-width="2"/>
    <text x="850" y="405" font-size="9" font-weight="bold" text-anchor="middle" fill="white">workflows</text>
    <line x="800" y="200" x1="850" y1="400" stroke="#22c55e" stroke-width="2"/>
  </g>

  <!-- TIER 3: SERVICES (4 core services) -->
  <g>
    <circle cx="200" cy="550" r="45" fill="#ec4899" stroke="#be185d" stroke-width="2"/>
    <text x="200" y="545" font-size="10" font-weight="bold" text-anchor="middle" fill="white">ai</text>
    <text x="200" y="558" font-size="10" font-weight="bold" text-anchor="middle" fill="white">aggregator</text>
    <line x="350" y="400" x1="200" y1="550" stroke="#22c55e" stroke-width="1.5"/>
    <line x="480" y="380" x1="200" y1="550" stroke="#22c55e" stroke-width="1.5"/>

    <circle cx="500" cy="550" r="45" fill="#ec4899" stroke="#be185d" stroke-width="2"/>
    <text x="500" y="555" font-size="10" font-weight="bold" text-anchor="middle" fill="white">dev-nexus</text>
    <line x="600" y="370" x1="500" y1="550" stroke="#22c55e" stroke-width="1.5"/>

    <circle cx="800" cy="550" r="45" fill="#ec4899" stroke="#be185d" stroke-width="2"/>
    <text x="800" y="550" font-size="10" font-weight="bold" text-anchor="middle" fill="white">notion</text>
    <text x="800" y="565" font-size="10" font-weight="bold" text-anchor="middle" fill="white">automation</text>

    <circle cx="1100" cy="550" r="45" fill="#ec4899" stroke="#be185d" stroke-width="2"/>
    <text x="1100" y="548" font-size="10" font-weight="bold" text-anchor="middle" fill="white">discord</text>
    <text x="1100" y="563" font-size="10" font-weight="bold" text-anchor="middle" fill="white">bot</text>
    <line x="850" y="400" x1="1100" y1="550" stroke="#22c55e" stroke-width="1.5"/>
  </g>

  <!-- TIER 4: PRODUCTS (12 end-user products) -->
  <g font-size="9">
    <!-- Top row (6) -->
    <circle cx="80" cy="750" r="35" fill="#6b8cdb" stroke="#2c3e5f" stroke-width="2"/>
    <text x="80" y="755" font-weight="bold" text-anchor="middle" fill="white">my-assistant</text>
    <line x="200" y="550" x1="80" y1="750" stroke="#ec4899" stroke-width="1"/>

    <circle cx="180" cy="750" r="35" fill="#6b8cdb" stroke="#2c3e5f" stroke-width="2"/>
    <text x="180" y="755" font-weight="bold" text-anchor="middle" fill="white">lifeos</text>
    <line x="200" y="550" x1="180" y1="750" stroke="#ec4899" stroke-width="1"/>

    <circle cx="280" cy="750" r="35" fill="#8ba3e8" stroke="#3730a3" stroke-width="2"/>
    <text x="280" y="755" font-weight="bold" text-anchor="middle" fill="white">my-fridge</text>
    <line x="200" y="550" x1="280" y1="750" stroke="#ec4899" stroke-width="1"/>

    <circle cx="380" cy="750" r="35" fill="#8ba3e8" stroke="#3730a3" stroke-width="2"/>
    <text x="380" y="755" font-weight="bold" text-anchor="middle" fill="white">diy-stream</text>
    <line x="500" y="550" x1="380" y1="750" stroke="#ec4899" stroke-width="1"/>

    <circle cx="480" cy="750" r="35" fill="#a5c1f5" stroke="#4c63d2" stroke-width="2"/>
    <text x="480" y="755" font-weight="bold" text-anchor="middle" fill="white">satisfactory</text>
    <line x="500" y="550" x1="480" y1="750" stroke="#ec4899" stroke-width="1"/>

    <circle cx="580" cy="750" r="35" fill="#a5c1f5" stroke="#4c63d2" stroke-width="2"/>
    <text x="580" y="755" font-weight="bold" text-anchor="middle" fill="white">genealogy</text>
    <line x="500" y="550" x1="580" y1="750" stroke="#ec4899" stroke-width="1"/>

    <!-- Bottom row (6) -->
    <circle cx="680" cy="750" r="35" fill="#6b8cdb" stroke="#2c3e5f" stroke-width="2"/>
    <text x="680" y="755" font-weight="bold" text-anchor="middle" fill="white">linkendin</text>
    <line x="800" y="550" x1="680" y1="750" stroke="#ec4899" stroke-width="1"/>

    <circle cx="780" cy="750" r="35" fill="#6b8cdb" stroke="#2c3e5f" stroke-width="2"/>
    <text x="780" y="755" font-weight="bold" text-anchor="middle" fill="white">PO-GO-DEX</text>
    <line x="800" y="550" x1="780" y1="750" stroke="#ec4899" stroke-width="1"/>

    <circle cx="880" cy="750" r="35" fill="#a5c1f5" stroke="#4c63d2" stroke-width="2"/>
    <text x="880" y="755" font-weight="bold" text-anchor="middle" fill="white">server</text>
    <line x="800" y="550" x1="880" y1="750" stroke="#ec4899" stroke-width="1"/>

    <circle cx="980" cy="750" r="35" fill="#6b8cdb" stroke="#2c3e5f" stroke-width="2"/>
    <text x="980" y="755" font-weight="bold" text-anchor="middle" fill="white">my-resume</text>
    <line x="1100" y="550" x1="980" y1="750" stroke="#ec4899" stroke-width="1"/>

    <circle cx="1080" cy="750" r="35" fill="#8ba3e8" stroke="#3730a3" stroke-width="2"/>
    <text x="1080" y="755" font-weight="bold" text-anchor="middle" fill="white">epub-sorter</text>
    <line x="1100" y="550" x1="1080" y1="750" stroke="#ec4899" stroke-width="1"/>

    <circle cx="1180" cy="750" r="35" fill="#a5c1f5" stroke="#4c63d2" stroke-width="2"/>
    <text x="1180" y="755" font-weight="bold" text-anchor="middle" fill="white">coach</text>
    <line x="1100" y="550" x1="1180" y1="750" stroke="#ec4899" stroke-width="1"/>
  </g>

  <!-- Additional frameworks/tools -->
  <g font-size="9" text-anchor="middle">
    <text x="80" y="840" font-weight="bold" fill="#1a1a1a">+ 7 dev-tools, + ~20 archived projects</text>
  </g>

  <!-- Key metrics -->
  <g font-size="11" fill="#1a1a1a">
    <text x="50" y="900" font-weight="bold">KEY METRICS:</text>
    <text x="50" y="920">• All 41 projects in 4-tier architecture</text>
    <text x="50" y="940">• 4 core services + 12 end-user products + 5 libs + 20 tools/archived</text>
    <text x="500" y="920">• Critical dependencies: shared-standards, chrysa-lib, agent-config</text>
    <text x="500" y="940">• Tech stack: Python 3.12+ (19), TypeScript (10), JavaScript (5), others (7)</text>
  </g>

  <!-- Generated note -->
  <text x="800" y="975" font-size="10" fill="#666" font-style="italic" text-anchor="middle">
    Generated 2026-04-17 | Interactive version available in Notion
  </text>
</svg>
