<svg viewBox="0 0 1200 800" xmlns="http://www.w3.org/2000/svg">
  <!-- MACRO DEPENDENCY ARCHITECTURE -->

  <!-- Title -->
  <text x="600" y="30" font-size="28" font-weight="bold" text-anchor="middle" fill="#1a1a1a">
    Chrysa Ecosystem — 4-Tier Architecture
  </text>

  <!-- TIER 1: PRODUCTS (Top) -->
  <rect x="50" y="80" width="1100" height="140" fill="#f0f4ff" stroke="#4c63d2" stroke-width="2" rx="8"/>
  <text x="60" y="105" font-size="18" font-weight="bold" fill="#2c3e5f">TIER 1: END-USER PRODUCTS (12 projects)</text>

  <g font-size="12" text-anchor="middle">
    <!-- Product boxes -->
    <rect x="70" y="120" width="80" height="60" fill="#6b8cdb" rx="4"/>
    <text x="110" y="145" fill="white" font-weight="bold">my-assistant</text>
    <text x="110" y="160" fill="white" font-size="11">Prod</text>

    <rect x="160" y="120" width="80" height="60" fill="#6b8cdb" rx="4"/>
    <text x="200" y="145" fill="white" font-weight="bold">lifeos</text>
    <text x="200" y="160" fill="white" font-size="11">Prod</text>

    <rect x="250" y="120" width="80" height="60" fill="#8ba3e8" rx="4"/>
    <text x="290" y="145" fill="white" font-weight="bold">my-fridge</text>
    <text x="290" y="160" fill="white" font-size="11">MVP</text>

    <rect x="340" y="120" width="80" height="60" fill="#8ba3e8" rx="4"/>
    <text x="380" y="145" fill="white" font-weight="bold">diy-stream</text>
    <text x="380" y="160" fill="white" font-size="11">MVP</text>

    <rect x="430" y="120" width="80" height="60" fill="#a5c1f5" rx="4"/>
    <text x="470" y="145" fill="white" font-weight="bold">satisfactory</text>
    <text x="470" y="160" fill="white" font-size="11">Alpha</text>

    <rect x="520" y="120" width="80" height="60" fill="#a5c1f5" rx="4"/>
    <text x="560" y="145" fill="white" font-weight="bold">genealogy</text>
    <text x="560" y="160" fill="white" font-size="11">Alpha</text>

    <rect x="610" y="120" width="80" height="60" fill="#6b8cdb" rx="4"/>
    <text x="650" y="145" fill="white" font-weight="bold">linkendin</text>
    <text x="650" y="160" fill="white" font-size="11">Prod</text>

    <rect x="700" y="120" width="80" height="60" fill="#6b8cdb" rx="4"/>
    <text x="740" y="145" fill="white" font-weight="bold">PO-GO-DEX</text>
    <text x="740" y="160" fill="white" font-size="11">Prod</text>

    <rect x="790" y="120" width="80" height="60" fill="#a5c1f5" rx="4"/>
    <text x="830" y="145" fill="white" font-weight="bold">server</text>
    <text x="830" y="160" fill="white" font-size="11">Alpha</text>

    <rect x="880" y="120" width="80" height="60" fill="#6b8cdb" rx="4"/>
    <text x="920" y="145" fill="white" font-weight="bold">my-resume</text>
    <text x="920" y="160" fill="white" font-size="11">Prod</text>

    <rect x="970" y="120" width="80" height="60" fill="#8ba3e8" rx="4"/>
    <text x="1010" y="145" fill="white" font-weight="bold">epub-sorter</text>
    <text x="1010" y="160" fill="white" font-size="11">MVP</text>

    <rect x="1060" y="120" width="70" height="60" fill="#a5c1f5" rx="4"/>
    <text x="1095" y="145" fill="white" font-weight="bold">coach</text>
    <text x="1095" y="160" fill="white" font-size="11">Alpha</text>
  </g>

  <!-- Arrows from Tier 1 to Tier 2 -->
  <defs>
    <marker id="arrowhead" markerWidth="10" markerHeight="10" refX="9" refY="3" orient="auto">
      <polygon points="0 0, 10 3, 0 6" fill="#4c63d2"/>
    </marker>
  </defs>

  <line x1="300" y1="180" x2="300" y2="240" stroke="#4c63d2" stroke-width="2" marker-end="url(#arrowhead)"/>
  <line x1="600" y1="180" x2="600" y2="240" stroke="#4c63d2" stroke-width="2" marker-end="url(#arrowhead)"/>
  <line x1="900" y1="180" x2="900" y2="240" stroke="#4c63d2" stroke-width="2" marker-end="url(#arrowhead)"/>

  <!-- TIER 2: SERVICES -->
  <rect x="50" y="240" width="1100" height="120" fill="#fff0f5" stroke="#d946a6" stroke-width="2" rx="8"/>
  <text x="60" y="265" font-size="18" font-weight="bold" fill="#6b0d3e">TIER 2: PLATFORM SERVICES (4 projects)</text>

  <g font-size="12" text-anchor="middle">
    <rect x="120" y="280" width="200" height="60" fill="#ec4899" rx="4"/>
    <text x="220" y="300" fill="white" font-weight="bold">ai-aggregator</text>
    <text x="220" y="318" fill="white" font-size="11">LLM Router (Claude/OpenAI)</text>

    <rect x="360" y="280" width="200" height="60" fill="#ec4899" rx="4"/>
    <text x="460" y="300" fill="white" font-weight="bold">dev-nexus</text>
    <text x="460" y="318" fill="white" font-size="11">Conflict Detection + Dashboard</text>

    <rect x="600" y="280" width="200" height="60" fill="#ec4899" rx="4"/>
    <text x="700" y="300" fill="white" font-weight="bold">notion-automation</text>
    <text x="700" y="318" fill="white" font-size="11">Bidirectional GitHub ↔ Notion</text>

    <rect x="840" y="280" width="200" height="60" fill="#ec4899" rx="4"/>
    <text x="940" y="300" fill="white" font-weight="bold">discord-bot-back</text>
    <text x="940" y="318" fill="white" font-size="11">Event Aggregation</text>
  </g>

  <!-- Arrows from Tier 2 to Tier 3 -->
  <line x1="220" y1="340" x2="220" y2="400" stroke="#d946a6" stroke-width="2" marker-end="url(#arrowhead)"/>
  <line x1="460" y1="340" x2="460" y2="400" stroke="#d946a6" stroke-width="2" marker-end="url(#arrowhead)"/>
  <line x1="700" y1="340" x2="700" y2="400" stroke="#d946a6" stroke-width="2" marker-end="url(#arrowhead)"/>
  <line x1="940" y1="340" x2="940" y2="400" stroke="#d946a6" stroke-width="2" marker-end="url(#arrowhead)"/>

  <!-- TIER 3: SHARED LIBRARIES -->
  <rect x="50" y="400" width="1100" height="120" fill="#f0fdf4" stroke="#22c55e" stroke-width="2" rx="8"/>
  <text x="60" y="425" font-size="18" font-weight="bold" fill="#15803d">TIER 3: SHARED LIBRARIES (1 monorepo, 5 packages)</text>

  <g font-size="12" text-anchor="middle">
    <rect x="100" y="440" width="160" height="60" fill="#22c55e" rx="4"/>
    <text x="180" y="460" fill="white" font-weight="bold">chrysa-lib/auth</text>
    <text x="180" y="478" fill="white" font-size="11">OAuth2, JWT, LDAP</text>

    <rect x="280" y="440" width="160" height="60" fill="#22c55e" rx="4"/>
    <text x="360" y="460" fill="white" font-weight="bold">chrysa-lib/api</text>
    <text x="360" y="478" fill="white" font-size="11">REST/GraphQL utils</text>

    <rect x="460" y="440" width="160" height="60" fill="#22c55e" rx="4"/>
    <text x="540" y="460" fill="white" font-weight="bold">chrysa-lib/utils</text>
    <text x="540" y="478" fill="white" font-size="11">Common functions</text>

    <rect x="640" y="440" width="160" height="60" fill="#22c55e" rx="4"/>
    <text x="720" y="460" fill="white" font-weight="bold">chrysa-lib/models</text>
    <text x="720" y="478" fill="white" font-size="11">Pydantic/TypeScript</text>

    <rect x="820" y="440" width="160" height="60" fill="#22c55e" rx="4"/>
    <text x="900" y="460" fill="white" font-weight="bold">chrysa-lib/workflows</text>
    <text x="900" y="478" fill="white" font-size="11">Async task runners</text>
  </g>

  <!-- Arrows from Tier 3 to Tier 4 -->
  <line x1="300" y1="500" x2="300" y2="560" stroke="#22c55e" stroke-width="2" marker-end="url(#arrowhead)"/>
  <line x1="600" y1="500" x2="600" y2="560" stroke="#22c55e" stroke-width="2" marker-end="url(#arrowhead)"/>
  <line x1="900" y1="500" x2="900" y2="560" stroke="#22c55e" stroke-width="2" marker-end="url(#arrowhead)"/>

  <!-- TIER 4: INFRASTRUCTURE & FOUNDATION -->
  <rect x="50" y="560" width="1100" height="120" fill="#fef3c7" stroke="#f59e0b" stroke-width="2" rx="8"/>
  <text x="60" y="585" font-size="18" font-weight="bold" fill="#92400e">TIER 4: FOUNDATION & INFRASTRUCTURE</text>

  <g font-size="12" text-anchor="middle">
    <rect x="100" y="600" width="180" height="60" fill="#f59e0b" rx="4"/>
    <text x="190" y="620" fill="white" font-weight="bold">agent-config</text>
    <text x="190" y="638" fill="white" font-size="11">MCP, prompts, scheduled tasks</text>

    <rect x="300" y="600" width="180" height="60" fill="#f59e0b" rx="4"/>
    <text x="390" y="620" fill="white" font-weight="bold">shared-standards</text>
    <text x="390" y="638" fill="white" font-size="11">CI/CD, hooks, conventions</text>

    <rect x="500" y="600" width="180" height="60" fill="#f59e0b" rx="4"/>
    <text x="590" y="620" fill="white" font-weight="bold">github-actions</text>
    <text x="590" y="638" fill="white" font-size="11">Custom workflows</text>

    <rect x="700" y="600" width="180" height="60" fill="#f59e0b" rx="4"/>
    <text x="790" y="620" fill="white" font-weight="bold">PostgreSQL 16</text>
    <text x="790" y="638" fill="white" font-size="11">Primary database</text>

    <rect x="900" y="600" width="180" height="60" fill="#f59e0b" rx="4"/>
    <text x="990" y="620" fill="white" font-weight="bold">Redis 7 + Docker</text>
    <text x="990" y="638" fill="white" font-size="11">Cache + Containers</text>
  </g>

  <!-- Legend -->
  <text x="60" y="750" font-size="12" font-weight="bold" fill="#1a1a1a">
    ✅ All 41 projects | 🟢 Production: 9 | 🟡 MVP: 5 | 🔵 Alpha: 4 | 🔷 Concept: 2 | 📦 Archived: ~20
  </text>

  <!-- Generated note -->
  <text x="60" y="775" font-size="10" fill="#666" font-style="italic">
    Generated 2026-04-17 | SVG Diagram for Notion integration
  </text>
</svg>
